<svg xmlns="http://www.w3.org/2000/svg" width="99.536" height="52.723" viewBox="0 0 99.536 52.723">
  <g id="Group_55" data-name="Group 55" transform="translate(-80.931 -144.561)">
    <g id="Group_48" data-name="Group 48" transform="translate(81.431 145.061)">
      <path id="Path_1429" data-name="Path 1429" d="M176.922,190.164h-3.311V188.8h3.311a1.684,1.684,0,0,0,1.682-1.683V176.665a1.686,1.686,0,0,0-.844-1.459l-11.125-6.387a3.052,3.052,0,0,1-.976-.891l-14.6-20.788a1.683,1.683,0,0,0-1.377-.716H84.477a1.684,1.684,0,0,0-1.683,1.683v34.41A1.693,1.693,0,0,0,84,184.13l15.805,4.7-.389,1.307-15.806-4.7a3.066,3.066,0,0,1-2.177-2.92v-34.41a3.05,3.05,0,0,1,3.046-3.046h65.208a3.05,3.05,0,0,1,2.493,1.3l14.6,20.789a1.683,1.683,0,0,0,.539.492l11.125,6.387a3.054,3.054,0,0,1,1.529,2.642v10.452A3.049,3.049,0,0,1,176.922,190.164Z" transform="translate(-81.431 -145.061)" fill="#1c9cea" stroke="#1c9cea" stroke-width="1"/>
    </g>
    <g id="Group_49" data-name="Group 49" transform="translate(82.113 154.108)">
      <rect id="Rectangle_97" data-name="Rectangle 97" width="75.153" height="1.363" fill="#1c9cea" stroke="#1c9cea" stroke-width="1"/>
    </g>
    <g id="Group_50" data-name="Group 50" transform="translate(141.752 154.645)">
      <path id="Path_1430" data-name="Path 1430" d="M194.528,172.886H175.3a3.062,3.062,0,0,1-2.976-2.4l-2.416-11.08,1.332-.29,2.416,11.08a1.691,1.691,0,0,0,1.644,1.324h19.224Z" transform="translate(-169.912 -159.119)" fill="#1c9cea" stroke="#1c9cea" stroke-width="1"/>
    </g>
    <g id="Group_51" data-name="Group 51" transform="translate(82.113 167.049)">
      <rect id="Rectangle_98" data-name="Rectangle 98" width="65.018" height="1.363" fill="#1c9cea" stroke="#1c9cea" stroke-width="1"/>
    </g>
    <g id="Group_52" data-name="Group 52" transform="translate(123.488 188.8)">
      <rect id="Rectangle_99" data-name="Rectangle 99" width="27.189" height="1.363" transform="translate(0)" fill="#1c9cea" stroke="#1c9cea" stroke-width="1"/>
    </g>
    <g id="Group_53" data-name="Group 53" transform="translate(105.31 183.599)">
      <path id="Path_1431" data-name="Path 1431" d="M123.05,214.775a6.592,6.592,0,1,1,6.592-6.592A6.6,6.6,0,0,1,123.05,214.775Zm0-11.821a5.229,5.229,0,1,0,5.229,5.229A5.235,5.235,0,0,0,123.05,202.953Z" transform="translate(-116.458 -201.59)" fill="#1c9cea" stroke="#1c9cea" stroke-width="1"/>
    </g>
    <g id="Group_54" data-name="Group 54" transform="translate(155.197 183.599)">
      <path id="Path_1432" data-name="Path 1432" d="M196.226,214.775a6.592,6.592,0,1,1,6.592-6.592A6.6,6.6,0,0,1,196.226,214.775Zm0-11.821a5.229,5.229,0,1,0,5.229,5.229A5.235,5.235,0,0,0,196.226,202.953Z" transform="translate(-189.634 -201.59)" fill="#1c9cea" stroke="#1c9cea" stroke-width="1"/>
    </g>
  </g>
</svg>
