<svg xmlns="http://www.w3.org/2000/svg" width="130.634" height="52.639" viewBox="0 0 130.634 52.639">
  <g id="Group_38" data-name="Group 38" transform="translate(-55.765 -371.736)">
    <g id="Group_30" data-name="Group 30" transform="translate(163.407 412.498)">
      <path id="Path_1416" data-name="Path 1416" d="M244.086,452.055a5.689,5.689,0,1,1,5.689-5.689A5.7,5.7,0,0,1,244.086,452.055Zm0-10.2a4.512,4.512,0,1,0,4.512,4.512A4.517,4.517,0,0,0,244.086,441.855Z" transform="translate(-238.397 -440.678)" fill="#1c9cea" stroke="#1c9cea" stroke-width="1"/>
    </g>
    <g id="Group_31" data-name="Group 31" transform="translate(85.331 412.498)">
      <path id="Path_1417" data-name="Path 1417" d="M111.363,452.055a5.689,5.689,0,1,1,5.689-5.689A5.695,5.695,0,0,1,111.363,452.055Zm0-10.2a4.512,4.512,0,1,0,4.513,4.512A4.517,4.517,0,0,0,111.363,441.855Z" transform="translate(-105.675 -440.678)" fill="#1c9cea" stroke="#1c9cea" stroke-width="1"/>
    </g>
    <g id="Group_32" data-name="Group 32" transform="translate(69.505 412.498)">
      <path id="Path_1418" data-name="Path 1418" d="M84.46,452.055a5.689,5.689,0,1,1,5.689-5.689A5.695,5.695,0,0,1,84.46,452.055Zm0-10.2a4.512,4.512,0,1,0,4.513,4.512A4.517,4.517,0,0,0,84.46,441.855Z" transform="translate(-78.772 -440.678)" fill="#1c9cea" stroke="#1c9cea" stroke-width="1"/>
    </g>
    <g id="Group_33" data-name="Group 33" transform="translate(56.265 372.236)">
      <path id="Path_1419" data-name="Path 1419" d="M182.242,418.775h-2.655V417.6h2.655a2.483,2.483,0,0,0,2.48-2.48V381.911a2.466,2.466,0,0,0-1.573-2.308l-15.319-6.019a2.478,2.478,0,0,0-.907-.171h-107a2.482,2.482,0,0,0-2.48,2.48v34.834a2.493,2.493,0,0,0,.984,1.978l6.626,5.014-.71.938-6.627-5.014a3.676,3.676,0,0,1-1.449-2.916V375.892a3.66,3.66,0,0,1,3.656-3.656h107a3.634,3.634,0,0,1,1.336.253l15.32,6.018a3.636,3.636,0,0,1,2.32,3.4v33.208A3.661,3.661,0,0,1,182.242,418.775Z" transform="translate(-56.265 -372.236)" fill="#1c9cea" stroke="#1c9cea" stroke-width="1"/>
    </g>
    <g id="Group_34" data-name="Group 34" transform="translate(166.916 372.824)">
      <path id="Path_1420" data-name="Path 1420" d="M262.53,408.119l-15.918-6.633a3.647,3.647,0,0,1-2.25-3.375V373.236h1.177v24.875a2.473,2.473,0,0,0,1.527,2.29l15.918,6.633Z" transform="translate(-244.362 -373.236)" fill="#1c9cea" stroke="#1c9cea" stroke-width="1"/>
    </g>
    <g id="Group_35" data-name="Group 35" transform="translate(56.853 392.374)">
      <path id="Path_1421" data-name="Path 1421" d="M169.589,415.174l-18.732-7.36a2.474,2.474,0,0,0-.9-.169H57.265v-1.177h92.692a3.642,3.642,0,0,1,1.329.25l18.733,7.36Z" transform="translate(-57.265 -406.468)" fill="#1c9cea" stroke="#1c9cea" stroke-width="1"/>
    </g>
    <g id="Group_36" data-name="Group 36" transform="translate(102.152 417.599)">
      <rect id="Rectangle_94" data-name="Rectangle 94" width="56.047" height="1.177" fill="#1c9cea" stroke="#1c9cea" stroke-width="1"/>
    </g>
    <g id="Group_37" data-name="Group 37" transform="translate(113.286 392.374)">
      <path id="Path_1422" data-name="Path 1422" d="M166.243,432.869H153.2v-26.4h13.047Zm-11.871-1.177h10.694V407.645H154.373Z" transform="translate(-153.196 -406.468)" fill="#1c9cea" stroke="#1c9cea" stroke-width="1"/>
    </g>
  </g>
</svg>
