<svg xmlns="http://www.w3.org/2000/svg" width="99" height="52.996" viewBox="0 0 99 52.996">
  <g id="Group_62" data-name="Group 62" transform="translate(-73.5 -50.321)">
    <g id="Group_56" data-name="Group 56" transform="translate(74 57.986)">
      <path id="Path_1433" data-name="Path 1433" d="M158.134,100.03h-24.27v-1.38h24.27a1.623,1.623,0,0,0,1.621-1.622V82.965a3,3,0,0,1,2.035-2.841l7.731-2.632a1.621,1.621,0,0,0,1.1-1.534V67.444a1.618,1.618,0,0,0-1.453-1.613l-31.094-3.239a1.675,1.675,0,0,0-.168-.009H115.279a1.639,1.639,0,0,0-.505.081L76.5,75.2a1.618,1.618,0,0,0-1.117,1.541V97.028A1.623,1.623,0,0,0,77,98.649H102.89v1.38H77a3.005,3.005,0,0,1-3-3V76.744a3,3,0,0,1,2.068-2.853l38.277-12.539a3.018,3.018,0,0,1,.934-.149H137.9a2.881,2.881,0,0,1,.309.017l31.1,3.239A2.994,2.994,0,0,1,172,67.444v8.513a3,3,0,0,1-2.035,2.841l-7.73,2.632a1.621,1.621,0,0,0-1.1,1.535V97.028A3.005,3.005,0,0,1,158.134,100.03Z" transform="translate(-74 -61.203)" fill="#1c9cea" stroke="#1c9cea" stroke-width="1"/>
    </g>
    <g id="Group_57" data-name="Group 57" transform="translate(93.185 73.473)">
      <path id="Path_1434" data-name="Path 1434" d="M111.945,94.27h-7.587a2.563,2.563,0,0,1-2.56-2.56V86.2a2.563,2.563,0,0,1,2.56-2.56h7.587a2.563,2.563,0,0,1,2.56,2.56V91.71A2.563,2.563,0,0,1,111.945,94.27Zm-7.587-9.246a1.181,1.181,0,0,0-1.179,1.179V91.71a1.181,1.181,0,0,0,1.179,1.179h7.587a1.181,1.181,0,0,0,1.179-1.179V86.2a1.181,1.181,0,0,0-1.179-1.179Z" transform="translate(-101.799 -83.644)" fill="#1c9cea" stroke="#1c9cea" stroke-width="1"/>
    </g>
    <g id="Group_58" data-name="Group 58" transform="translate(120.23 50.821)">
      <path id="Path_1435" data-name="Path 1435" d="M152.306,59.366h-11.32V53.848a3.031,3.031,0,0,1,3.027-3.027h5.265a3.031,3.031,0,0,1,3.028,3.027Zm-9.939-1.38h8.559V53.848a1.649,1.649,0,0,0-1.647-1.647h-5.265a1.648,1.648,0,0,0-1.647,1.647Z" transform="translate(-140.986 -50.821)" fill="#1c9cea" stroke="#1c9cea" stroke-width="1"/>
    </g>
    <g id="Group_59" data-name="Group 59" transform="translate(138.49 73.473)">
      <path id="Path_1436" data-name="Path 1436" d="M180.151,106.983H167.445V90a6.353,6.353,0,0,1,12.706,0Zm-11.326-1.38h9.946V90a4.973,4.973,0,0,0-9.946,0Z" transform="translate(-167.445 -83.644)" fill="#1c9cea" stroke="#1c9cea" stroke-width="1"/>
    </g>
    <g id="Group_60" data-name="Group 60" transform="translate(104.812 89.47)">
      <path id="Path_1437" data-name="Path 1437" d="M125.32,120.169a6.674,6.674,0,1,1,6.674-6.674A6.681,6.681,0,0,1,125.32,120.169Zm0-11.967a5.293,5.293,0,1,0,5.293,5.293A5.3,5.3,0,0,0,125.32,108.2Z" transform="translate(-118.646 -106.822)" fill="#1c9cea" stroke="#1c9cea" stroke-width="1"/>
    </g>
    <g id="Group_61" data-name="Group 61" transform="translate(118.849 89.47)">
      <path id="Path_1438" data-name="Path 1438" d="M145.66,120.169a6.674,6.674,0,1,1,6.674-6.674A6.681,6.681,0,0,1,145.66,120.169Zm0-11.967a5.293,5.293,0,1,0,5.293,5.293A5.3,5.3,0,0,0,145.66,108.2Z" transform="translate(-138.986 -106.822)" fill="#1c9cea" stroke="#1c9cea" stroke-width="1"/>
    </g>
  </g>
</svg>
