<svg xmlns="http://www.w3.org/2000/svg" width="45" height="30" viewBox="0 0 45 30">
  <g id="Group_1443" data-name="Group 1443" transform="translate(-0.375)">
    <rect id="card_bg" width="45" height="30" rx="4" transform="translate(0.375)" fill="#fff"/>
    <path id="visa-logo" d="M16.2,9.066A6.787,6.787,0,0,1,13.722,8.6l.41-1.9a4.779,4.779,0,0,0,2.263.572h.06c.678-.01,1.362-.281,1.362-.866.009-.373-.311-.67-1.181-1.1-.854-.418-1.99-1.12-1.99-2.39C14.645,1.2,16.212,0,18.454,0a6.107,6.107,0,0,1,2.133.391l-.4,1.9a4.3,4.3,0,0,0-1.828-.411c-.14,0-.281.007-.42.021-.658.087-.952.431-.952.734,0,.369.472.616,1.069.929.948.5,2.127,1.114,2.121,2.566l.048-.076c-.009,1.828-1.569,3.009-3.971,3.009Zm6.31-.076h-2.4L23.53.829a1.035,1.035,0,0,1,.952-.648h1.9l1.847,8.807H26.12l-.276-1.314H22.977l-.466,1.314Zm2.266-6.428-1.2,3.3h1.895Zm-12.684,6.4H9.808L11.713.153H14l-1.9,8.808Zm-5-.029H4.609L2.79,1.895a.957.957,0,0,0-.543-.771A9.443,9.443,0,0,0,0,.381L.057.123H3.933a1.065,1.065,0,0,1,1.057.9l.952,5.094L8.313.123h2.476L7.095,8.931Z" transform="translate(8.556 10.458)" fill="#2a2a6c"/>
  </g>
</svg>
