<svg xmlns="http://www.w3.org/2000/svg" width="47" height="30" viewBox="0 0 47 30">
  <g id="Group_1444" data-name="Group 1444" transform="translate(0.125)">
    <rect id="card_bg" width="47" height="30" rx="4" transform="translate(-0.125)" fill="#fff"/>
    <g id="paypal" transform="translate(15.46 5.478)">
      <path id="Path" d="M3.914,17.75l.333-2.095H0L2.438.171A.2.2,0,0,1,2.5.048.229.229,0,0,1,2.638,0H8.551c1.971,0,3.323.409,4.037,1.219a2.619,2.619,0,0,1,.638,1.209,4.209,4.209,0,0,1,0,1.666v.476l.333.19a2.371,2.371,0,0,1,.676.5,2.466,2.466,0,0,1,.543,1.228A5.456,5.456,0,0,1,14.7,8.265a6.17,6.17,0,0,1-.733,2.009,4.1,4.1,0,0,1-1.152,1.266,4.818,4.818,0,0,1-1.552.7,7.532,7.532,0,0,1-1.9.229H8.894a1.4,1.4,0,0,0-.9.324,1.352,1.352,0,0,0-.467.838v.19l-.581,3.695v.143a.143.143,0,0,1,0,.076H6.894Z" transform="translate(0.672 0.648)" fill="#253d80"/>
      <path id="Path-2" data-name="Path" d="M10.641,0l-.057.352c-.781,4-3.457,5.39-6.866,5.39H1.986a.847.847,0,0,0-.838.714L.262,12.093,0,13.693a.448.448,0,0,0,.438.514H3.528a.743.743,0,0,0,.733-.628v-.152l.581-3.685v-.2a.733.733,0,0,1,.724-.628h.5c2.98,0,5.323-1.209,6-4.761A4.037,4.037,0,0,0,11.46.6a3.076,3.076,0,0,0-.819-.6Z" transform="translate(3.905 4.837)" fill="#189bd7"/>
      <path id="Path-3" data-name="Path" d="M8.608.277l-.362-.1-.4-.076A9.579,9.579,0,0,0,6.323,0H1.676a.686.686,0,0,0-.314.067A.724.724,0,0,0,.952.62L0,6.876v.181a.847.847,0,0,1,.838-.714H2.571c3.409,0,6.085-1.39,6.866-5.39L9.494.6A4.266,4.266,0,0,0,8.856.334Z" transform="translate(5.119 4.237)" fill="#242e65"/>
      <path id="Path-4" data-name="Path" d="M6.071,4.856A.724.724,0,0,1,6.481,4.3.686.686,0,0,1,6.8,4.237h4.647a9.579,9.579,0,0,1,1.524.1l.4.076.362.1.181.057a4.266,4.266,0,0,1,.638.267,3.809,3.809,0,0,0-.762-3.4C12.832.429,11.271,0,9.233,0H3.31a.847.847,0,0,0-.838.714L.006,16.34a.514.514,0,0,0,.5.59H4.167l.952-5.818Z" transform="translate(0 0)" fill="#253d80"/>
    </g>
  </g>
</svg>
