<svg xmlns="http://www.w3.org/2000/svg" width="45" height="30" viewBox="0 0 45 30">
  <g id="Group_1445" data-name="Group 1445" transform="translate(0.375)">
    <rect id="card_bg" width="45" height="30" rx="4" transform="translate(-0.375)" fill="#f2f0ec"/>
    <g id="mastercard" transform="translate(3.888 2.812)">
      <g id="Group" opacity="0">
        <rect id="Rectangle" width="36.861" height="24.377" fill="#fff"/>
      </g>
      <rect id="Rectangle-2" data-name="Rectangle" width="9.722" height="15.883" transform="translate(13.569 4.247)" fill="#f26122"/>
      <path id="Path" d="M12.54,10.1a10.075,10.075,0,0,1,3.809-7.942,10.1,10.1,0,1,0,0,15.883A10.075,10.075,0,0,1,12.54,10.1Z" transform="translate(2.077 2.085)" fill="#ea1d25"/>
      <path id="Shape" d="M.476.392H.41V0H.5L.628.276.743,0h.1V.39H.771V.1l-.1.257H.59L.476.1v.3ZM.19.391H.134V.067H0V0H.333V.067H.19V.39Z" transform="translate(33.604 18.054)" fill="#f69e1e"/>
      <path id="Path-2" data-name="Path" d="M16.34,10.1A10.1,10.1,0,0,1,0,18.038,10.1,10.1,0,0,0,1.695,3.86,9.9,9.9,0,0,0,0,2.155,10.1,10.1,0,0,1,16.34,10.1Z" transform="translate(18.426 2.092)" fill="#f69e1e"/>
    </g>
  </g>
</svg>
