<svg xmlns="http://www.w3.org/2000/svg" width="26.998" height="21.93" viewBox="0 0 26.998 21.93">
  <path id="twitter-bird" d="M27,2.6A11.22,11.22,0,0,1,24.23,5.457q.016.317.016.717a15.908,15.908,0,0,1-2.626,8.709,16.816,16.816,0,0,1-3.171,3.607,14.129,14.129,0,0,1-4.423,2.5,16.145,16.145,0,0,1-5.536.935A15.414,15.414,0,0,1,0,19.44a11.969,11.969,0,0,0,1.321.076A10.858,10.858,0,0,0,8.2,17.145a5.368,5.368,0,0,1-3.216-1.106A5.445,5.445,0,0,1,3.028,13.3a5.543,5.543,0,0,0,2.5-.093A5.389,5.389,0,0,1,2.35,11.3,5.359,5.359,0,0,1,1.087,7.775V7.706A5.464,5.464,0,0,0,3.6,8.4,5.509,5.509,0,0,1,1.8,6.425a5.408,5.408,0,0,1-.665-2.634,5.44,5.44,0,0,1,.749-2.783A15.779,15.779,0,0,0,6.931,5.1,15.377,15.377,0,0,0,13.3,6.8a5.381,5.381,0,0,1-.145-1.261,5.336,5.336,0,0,1,1.623-3.916,5.547,5.547,0,0,1,7.958.129A11.047,11.047,0,0,0,26.248.4a5.354,5.354,0,0,1-2.433,3.065A11.074,11.074,0,0,0,27,2.6Z" transform="translate(0.001)" fill="#1c9cea"/>
</svg>
